<svg width="117" height="40" viewBox="0 0 117 40" fill="none" xmlns="http://www.w3.org/2000/svg">
<path d="M40.54 12.79C40.08 12.01 39.55 11.41 38.95 10.99C38.37 10.55 37.6 10.33 36.64 10.33C36.14 10.33 35.66 10.42 35.2 10.6C34.76 10.76 34.36 11 34 11.32C33.66 11.62 33.39 11.99 33.19 12.43C32.99 12.85 32.89 13.32 32.89 13.84C32.89 14.32 33 14.75 33.22 15.13C33.46 15.49 33.75 15.81 34.09 16.09C34.43 16.37 34.81 16.61 35.23 16.81C35.65 17.01 36.05 17.2 36.43 17.38L37.93 18.04C38.67 18.36 39.36 18.71 40 19.09C40.66 19.45 41.24 19.88 41.74 20.38C42.24 20.86 42.63 21.43 42.91 22.09C43.21 22.73 43.36 23.5 43.36 24.4C43.36 25.4 43.17 26.33 42.79 27.19C42.43 28.03 41.92 28.76 41.26 29.38C40.62 30 39.87 30.49 39.01 30.85C38.15 31.21 37.23 31.39 36.25 31.39C35.35 31.39 34.51 31.25 33.73 30.97C32.95 30.69 32.25 30.3 31.63 29.8C31.03 29.28 30.52 28.66 30.1 27.94C29.68 27.22 29.38 26.42 29.2 25.54L31.66 24.85C31.74 25.43 31.91 25.98 32.17 26.5C32.43 27 32.75 27.44 33.13 27.82C33.53 28.2 33.99 28.5 34.51 28.72C35.03 28.94 35.59 29.05 36.19 29.05C36.79 29.05 37.37 28.94 37.93 28.72C38.49 28.5 38.98 28.2 39.4 27.82C39.84 27.42 40.19 26.95 40.45 26.41C40.71 25.87 40.84 25.28 40.84 24.64C40.84 23.98 40.72 23.42 40.48 22.96C40.24 22.5 39.92 22.1 39.52 21.76C39.14 21.42 38.7 21.13 38.2 20.89C37.7 20.63 37.19 20.38 36.67 20.14L35.29 19.54C34.63 19.24 34 18.92 33.4 18.58C32.8 18.24 32.27 17.85 31.81 17.41C31.37 16.97 31.02 16.46 30.76 15.88C30.5 15.28 30.37 14.57 30.37 13.75C30.37 12.87 30.54 12.08 30.88 11.38C31.22 10.66 31.68 10.05 32.26 9.55C32.86 9.05 33.54 8.67 34.3 8.41C35.06 8.13 35.86 7.99 36.7 7.99C37.96 7.99 39.1 8.3 40.12 8.92C41.14 9.52 41.95 10.38 42.55 11.5L40.54 12.79ZM51.0578 31H48.6578V19.12H47.1878V16.9H48.6578V11.83H51.0578V16.9H53.5778V19.12H51.0578V31ZM59.4648 24.76C59.4648 25.36 59.4948 25.93 59.5548 26.47C59.6148 26.99 59.7448 27.45 59.9448 27.85C60.1648 28.25 60.4848 28.57 60.9048 28.81C61.3448 29.05 61.9248 29.17 62.6448 29.17C63.3648 29.17 63.9348 29.05 64.3548 28.81C64.7948 28.57 65.1148 28.25 65.3148 27.85C65.5348 27.45 65.6748 26.99 65.7348 26.47C65.7948 25.93 65.8248 25.36 65.8248 24.76V16.9H68.2248V25.03C68.2248 25.97 68.1248 26.83 67.9248 27.61C67.7448 28.39 67.4348 29.06 66.9948 29.62C66.5548 30.18 65.9748 30.62 65.2548 30.94C64.5548 31.24 63.6848 31.39 62.6448 31.39C61.6048 31.39 60.7248 31.24 60.0048 30.94C59.3048 30.62 58.7348 30.18 58.2948 29.62C57.8548 29.06 57.5348 28.39 57.3348 27.61C57.1548 26.83 57.0648 25.97 57.0648 25.03V16.9H59.4648V24.76ZM84.5664 29.05H84.5064C83.9264 29.81 83.2064 30.39 82.3464 30.79C81.5064 31.19 80.6064 31.39 79.6464 31.39C78.6064 31.39 77.6664 31.19 76.8264 30.79C76.0064 30.37 75.2964 29.82 74.6964 29.14C74.1164 28.46 73.6664 27.68 73.3464 26.8C73.0464 25.9 72.8964 24.96 72.8964 23.98C72.8964 22.98 73.0464 22.03 73.3464 21.13C73.6664 20.21 74.1164 19.41 74.6964 18.73C75.2764 18.05 75.9864 17.51 76.8264 17.11C77.6664 16.71 78.6164 16.51 79.6764 16.51C80.6364 16.51 81.5364 16.72 82.3764 17.14C83.2164 17.56 83.9264 18.15 84.5064 18.91H84.5664V6.25H86.9664V31H84.5664V29.05ZM79.9464 18.73C79.2464 18.73 78.6164 18.87 78.0564 19.15C77.4964 19.43 77.0164 19.81 76.6164 20.29C76.2164 20.75 75.9064 21.29 75.6864 21.91C75.4664 22.51 75.3564 23.14 75.3564 23.8C75.3564 24.5 75.4564 25.17 75.6564 25.81C75.8564 26.45 76.1464 27.02 76.5264 27.52C76.9264 28.02 77.4064 28.42 77.9664 28.72C78.5464 29.02 79.2164 29.17 79.9764 29.17C80.7564 29.17 81.4364 29.03 82.0164 28.75C82.5964 28.45 83.0864 28.06 83.4864 27.58C83.8864 27.08 84.1864 26.51 84.3864 25.87C84.5864 25.23 84.6864 24.55 84.6864 23.83C84.6864 23.13 84.5764 22.47 84.3564 21.85C84.1364 21.23 83.8264 20.69 83.4264 20.23C83.0264 19.77 82.5264 19.41 81.9264 19.15C81.3464 18.87 80.6864 18.73 79.9464 18.73ZM94.5609 9.88C95.0209 9.88 95.4209 10.05 95.7609 10.39C96.1009 10.73 96.2709 11.13 96.2709 11.59C96.2709 12.07 96.1009 12.48 95.7609 12.82C95.4209 13.14 95.0209 13.3 94.5609 13.3C94.1009 13.3 93.7009 13.14 93.3609 12.82C93.0209 12.48 92.8509 12.07 92.8509 11.59C92.8509 11.13 93.0209 10.73 93.3609 10.39C93.7009 10.05 94.1009 9.88 94.5609 9.88ZM95.7609 31H93.3609V16.9H95.7609V31ZM108.412 18.73C107.672 18.73 106.992 18.87 106.372 19.15C105.752 19.43 105.222 19.81 104.782 20.29C104.342 20.75 104.002 21.3 103.762 21.94C103.522 22.56 103.402 23.23 103.402 23.95C103.402 24.67 103.522 25.35 103.762 25.99C104.002 26.61 104.342 27.16 104.782 27.64C105.222 28.12 105.752 28.5 106.372 28.78C106.992 29.04 107.672 29.17 108.412 29.17C109.152 29.17 109.832 29.04 110.452 28.78C111.072 28.5 111.602 28.12 112.042 27.64C112.482 27.16 112.822 26.61 113.062 25.99C113.302 25.35 113.422 24.67 113.422 23.95C113.422 23.23 113.302 22.56 113.062 21.94C112.822 21.3 112.482 20.75 112.042 20.29C111.602 19.81 111.072 19.43 110.452 19.15C109.832 18.87 109.152 18.73 108.412 18.73ZM108.412 31.39C107.392 31.39 106.432 31.2 105.532 30.82C104.632 30.44 103.842 29.92 103.162 29.26C102.502 28.58 101.972 27.79 101.572 26.89C101.192 25.99 101.002 25.02 101.002 23.98C101.002 22.94 101.192 21.97 101.572 21.07C101.952 20.17 102.472 19.38 103.132 18.7C103.812 18.02 104.602 17.49 105.502 17.11C106.402 16.71 107.372 16.51 108.412 16.51C109.452 16.51 110.422 16.71 111.322 17.11C112.222 17.49 113.002 18.02 113.662 18.7C114.342 19.38 114.872 20.17 115.252 21.07C115.632 21.97 115.822 22.94 115.822 23.98C115.822 25.02 115.622 25.99 115.222 26.89C114.842 27.79 114.312 28.58 113.632 29.26C112.972 29.92 112.192 30.44 111.292 30.82C110.392 31.2 109.432 31.39 108.412 31.39Z" fill="black"/>
<path fill-rule="evenodd" clip-rule="evenodd" d="M24.7671 5H8.19401L8.15945 5.07863L19.5171 31H24.7671V5ZM16.2842 31L13.0342 23.3298H3.25L0 31H16.2842ZM4.13947 20.7845L8.125 11.5769L12.1105 20.7845H4.13947Z" fill="#E82626"/>
</svg>
